<svg xmlns="http://www.w3.org/2000/svg" viewBox="29 -408 200 200"><defs><style>.a{fill:none;}.b{fill:#2c3e50;}</style></defs><rect class="a" width="200" height="200" transform="translate(29 -408)"/><g transform="translate(29.376 -440.882)"><g transform="translate(0 54.82)"><path class="b" d="M19.16,103.166Q22.948,105.839,42,119.04t29.186,20.328q1.114.781,4.733,3.4T81.93,147q2.4,1.614,5.794,3.62a33.61,33.61,0,0,0,6.406,3,17.65,17.65,0,0,0,5.57,1h.224a17.666,17.666,0,0,0,5.571-1,33.643,33.643,0,0,0,6.405-3q3.4-2.007,5.792-3.62t6.015-4.234q3.619-2.62,4.735-3.4,10.247-7.128,52.133-36.2a52.92,52.92,0,0,0,13.589-13.7,29.418,29.418,0,0,0,5.46-16.818A17.975,17.975,0,0,0,181.8,54.82H17.823q-8.577,0-13.2,5.792T0,75.093Q0,82.111,6.127,90.3A55.293,55.293,0,0,0,19.16,103.166Z" transform="translate(0 -54.82)"/><path class="b" d="M188.482,194.128q-36.534,24.728-55.474,38.433-6.349,4.677-10.3,7.3a63.588,63.588,0,0,1-10.527,5.346,32.054,32.054,0,0,1-12.252,2.729H99.7A32.064,32.064,0,0,1,87.447,245.2a63.621,63.621,0,0,1-10.527-5.346q-3.953-2.616-10.3-7.3-15.039-11.028-55.364-38.433A59.005,59.005,0,0,1,0,184.437v88.447a17.159,17.159,0,0,0,5.235,12.589,17.16,17.16,0,0,0,12.589,5.237H181.8a17.878,17.878,0,0,0,17.823-17.826V184.437A61.428,61.428,0,0,1,188.482,194.128Z" transform="translate(0 -133.864)"/></g></g></svg>