<svg xmlns="http://www.w3.org/2000/svg" viewBox="606 -398 200 200"><defs><style>.a{fill:none;}.b{fill:#2c3e50;}</style></defs><rect class="a" width="200" height="200" transform="translate(606 -398)"/><g transform="translate(608.964 -392.518)"><path class="b" d="M129.647,187.724a17.688,17.688,0,0,1-2.854.919c-3.707.662-6.08-1.252-6.1-5.042-.049-7.037-.049-14.064.066-21.1.12-8.093-.066-16.081-6.228-22.758,3.664-.656,6.922-1.115,10.11-1.848,21.117-4.85,32.086-18.17,33.486-40.277.716-11.253-1.29-21.577-8.771-30.44a3.7,3.7,0,0,1-.312-2.947,37.1,37.1,0,0,0-.908-21.648,2.766,2.766,0,0,0-3.292-2.225,33.631,33.631,0,0,0-16.891,5.867c-4.828,3.243-9.323,3.948-15.059,2.636-12.631-2.849-25.344-2.018-37.948.9a6.956,6.956,0,0,1-4.653-.88c-5.916-3.467-11.833-6.835-18.657-8.18-5.277-1.028-5.736-.766-7.136,4.336a35.674,35.674,0,0,0-.137,19.335,3.913,3.913,0,0,1-.64,3.144c-13.982,15.6-8.918,45.078.5,56.37,7.327,8.771,17.06,12.719,27.865,14.769,1.886.35,3.762.618,5.648.946-1.619,4.21-3.073,8.186-4.719,12.1a3.986,3.986,0,0,1-2.182,1.706c-10.6,4.112-19.707,1.088-25.771-8.53-3.243-5.129-7.4-8.962-13.6-10.072a1.911,1.911,0,0,0-.58-.115c-1.668.437-3.319.9-4.981,1.345.935,1.3,1.6,3.051,2.849,3.833a27.855,27.855,0,0,1,10.931,13.659c3.549,8.771,10.438,12.68,19.39,13.446,4.369.355,8.782.055,13.566.055,0,5.446.2,11.663-.082,17.853-.142,3.335-3.494,4.67-7.508,3.3a87.3,87.3,0,0,1-29.041-16.2C5.228,145.462-6.638,111.943,3.593,72.71,13.791,33.6,40.371,9.615,80.112,2.086,135.1-8.314,187.2,31.733,192.655,87.556A96.346,96.346,0,0,1,129.647,187.724ZM77.8,139.393c-.033.077-.055.131-.087.208l.3.049C78.095,139.655,78.16,139.792,77.8,139.393ZM52.925,156.786a12.374,12.374,0,0,0,2.608,1.493c.339.109.968-.662,2.078-1.482a18.8,18.8,0,0,0-3.407-1.23C53.833,155.523,53.352,156.36,52.925,156.786Zm7.836,1.345a2.427,2.427,0,0,0,1.941,1.279c.651-.011,1.285-.875,1.936-1.367-.591-.541-1.181-1.066-3-2.7C61.248,156.48,60.6,157.4,60.761,158.132Zm9.613-2.313a7.7,7.7,0,0,0-2.231,1.454c.432.547.864,1.055,1.558,1.914.957-.875,1.608-1.482,2.264-2.072C71.418,156.639,70.778,155.72,70.374,155.819Zm-23.83-3.243a21.572,21.572,0,0,0,2.083,2.778c.629-1.028,1.312-1.815,1.192-1.974a10.562,10.562,0,0,0-2.2-2.007C47.561,151.329,46.451,152.39,46.544,152.576Z" transform="translate(0 0)"/></g></svg>