<svg xmlns="http://www.w3.org/2000/svg" viewBox="326 -408 200 200"><defs><style>.a{fill:none;}.b{fill:#2c3e50;}</style></defs><g transform="translate(1 256)"><rect class="a" width="200" height="200" transform="translate(325 -664)"/><g transform="translate(327.073 -700.302)"><g transform="translate(0.001 57.441)"><path class="b" d="M194.965,76.178A79.87,79.87,0,0,1,172,82.477a40.161,40.161,0,0,0,17.58-22.112,80.63,80.63,0,0,1-25.414,9.71,40.026,40.026,0,0,0-68.152,36.464,113.548,113.548,0,0,1-82.43-41.788,40.042,40.042,0,0,0,12.378,53.386,40,40,0,0,1-18.116-5.019v.5a40.035,40.035,0,0,0,32.078,39.217,40.511,40.511,0,0,1-10.538,1.4,38.388,38.388,0,0,1-7.529-.743A40.016,40.016,0,0,0,59.21,181.269,80.244,80.244,0,0,1,9.54,198.362,85,85,0,0,1,0,197.814a113.053,113.053,0,0,0,61.3,17.994c73.573,0,113.789-60.94,113.789-113.789l-.134-5.178A79.867,79.867,0,0,0,194.965,76.178Z" transform="translate(-0.001 -57.441)"/></g></g></g></svg>