<?xml version="1.0" encoding="utf-8"?>
<!-- Generator: Adobe Illustrator 20.0.0, SVG Export Plug-In . SVG Version: 6.00 Build 0)  -->
<svg version="1.1" xmlns="http://www.w3.org/2000/svg" xmlns:xlink="http://www.w3.org/1999/xlink" x="0px" y="0px"
	 viewBox="0 0 1106 512" style="enable-background:new 0 0 1106 512;" xml:space="preserve">
<g id="Capa_1_copy">
	<g>
		<path class="st0" d="M483.7,0H28.3C12.7,0,0,12.6,0,28.3v455.5C0,499.3,12.7,512,28.3,512h245.2V313.7h-66.7v-77.3h66.7v-57
			c0-66.1,40.4-102.1,99.4-102.1c28.3,0,52.5,2.1,59.6,3v69.1l-40.9,0c-32.1,0-38.3,15.3-38.3,37.6v49.3h76.5l-10,77.3h-66.5V512
			h130.5c15.6,0,28.3-12.7,28.3-28.2V28.3C512,12.6,499.3,0,483.7,0z" fill="#4586BF"/>
	</g>
</g>
<g id="Capa_1">
	<g>
		<path class="st0" d="M1077.7,0H622.3C606.7,0,594,12.6,594,28.3v455.5c0,15.6,12.7,28.3,28.3,28.3h245.2V313.7h-66.7v-77.3h66.7
			v-57c0-66.1,40.4-102.1,99.4-102.1c28.3,0,52.5,2.1,59.6,3v69.1l-40.9,0c-32.1,0-38.3,15.3-38.3,37.6v49.3h76.5l-10,77.3h-66.5
			V512h130.5c15.6,0,28.3-12.7,28.3-28.2V28.3C1106,12.6,1093.3,0,1077.7,0z" fill="#2C3E50"/>
	</g>
</g>
</svg>
